<svg xmlns="http://www.w3.org/2000/svg" width="1200" height="675" viewBox="0 0 1200 675" role="img" aria-label="Jejak Penanaman cover">
  <rect width="1200" height="675" fill="#0D1B2A"/>
  <circle cx="100.0" cy="150.0" r="5.4" fill="none" stroke="#C9603D" stroke-opacity="0.093" stroke-width="2"/><circle cx="225.0" cy="150.0" r="11.6" fill="none" stroke="#C9603D" stroke-opacity="0.137" stroke-width="2"/><rect x="340.8" y="140.8" width="18.4" height="18.4" rx="2" fill="none" stroke="#C9603D" stroke-opacity="0.136" stroke-width="2"/><path d="M489.0 150.0H586.0" stroke="#C9603D" stroke-opacity="0.102" stroke-width="1.5"/><rect x="590.7" y="140.7" width="18.6" height="18.6" rx="2" fill="none" stroke="#C99A3E" stroke-opacity="0.136" stroke-width="2"/><path d="M717.2 150.0H732.8M725.0 142.2V157.8" stroke="#C99A3E" stroke-opacity="0.159" stroke-width="2" stroke-linecap="round"/><circle cx="850.0" cy="150.0" r="8.8" fill="none" stroke="#C9603D" stroke-opacity="0.212" stroke-width="2"/><path d="M962.6 150.0H987.4M975.0 137.6V162.4" stroke="#C99A3E" stroke-opacity="0.221" stroke-width="2" stroke-linecap="round"/><circle cx="1100.0" cy="150.0" r="11.0" fill="none" stroke="#C99A3E" stroke-opacity="0.124" stroke-width="2"/><circle cx="100.0" cy="253.8" r="3.2" fill="#C9603D" fill-opacity="0.254"/><path d="M114.0 253.8H211.0" stroke="#C9603D" stroke-opacity="0.178" stroke-width="1.5"/><path d="M214.2 253.8H235.8M225.0 243.0V264.5" stroke="#C9603D" stroke-opacity="0.110" stroke-width="2" stroke-linecap="round"/><circle cx="350.0" cy="253.8" r="9.7" fill="none" stroke="#C99A3E" stroke-opacity="0.260" stroke-width="2"/><path d="M364.0 253.8H461.0" stroke="#C99A3E" stroke-opacity="0.182" stroke-width="1.5"/><path d="M465.1 253.8H484.9M475.0 243.9V263.6" stroke="#C9603D" stroke-opacity="0.158" stroke-width="2" stroke-linecap="round"/><circle cx="600.0" cy="253.8" r="3.2" fill="#C9603D" fill-opacity="0.092"/><path d="M614.0 253.8H711.0" stroke="#C9603D" stroke-opacity="0.064" stroke-width="1.5"/><path d="M713.5 253.8H736.5M725.0 242.3V265.2" stroke="#C99A3E" stroke-opacity="0.256" stroke-width="2" stroke-linecap="round"/><path d="M739.0 253.8H836.0" stroke="#C99A3E" stroke-opacity="0.179" stroke-width="1.5"/><rect x="839.1" y="242.8" width="21.8" height="21.8" rx="2" fill="none" stroke="#C9603D" stroke-opacity="0.259" stroke-width="2"/><path d="M964.9 253.8H985.1M975.0 243.6V263.9" stroke="#C9603D" stroke-opacity="0.221" stroke-width="2" stroke-linecap="round"/><circle cx="100.0" cy="357.5" r="10.0" fill="none" stroke="#C9603D" stroke-opacity="0.170" stroke-width="2"/><path d="M216.2 357.5H233.8M225.0 348.7V366.3" stroke="#C99A3E" stroke-opacity="0.167" stroke-width="2" stroke-linecap="round"/><circle cx="350.0" cy="357.5" r="7.4" fill="none" stroke="#C99A3E" stroke-opacity="0.084" stroke-width="2"/><path d="M364.0 357.5H461.0" stroke="#C99A3E" stroke-opacity="0.059" stroke-width="1.5"/><circle cx="475.0" cy="357.5" r="9.4" fill="none" stroke="#C99A3E" stroke-opacity="0.144" stroke-width="2"/><circle cx="600.0" cy="357.5" r="5.1" fill="none" stroke="#C99A3E" stroke-opacity="0.198" stroke-width="2"/><path d="M713.9 357.5H736.1M725.0 346.4V368.6" stroke="#C99A3E" stroke-opacity="0.186" stroke-width="2" stroke-linecap="round"/><path d="M864.0 357.5H961.0" stroke="#C9603D" stroke-opacity="0.077" stroke-width="1.5"/><circle cx="975.0" cy="357.5" r="8.5" fill="none" stroke="#C99A3E" stroke-opacity="0.255" stroke-width="2"/><rect x="1088.6" y="346.1" width="22.8" height="22.8" rx="2" fill="none" stroke="#C9603D" stroke-opacity="0.172" stroke-width="2"/><circle cx="100.0" cy="461.3" r="3.2" fill="#C99A3E" fill-opacity="0.226"/><path d="M217.5 461.3H232.5M225.0 453.7V468.8" stroke="#C99A3E" stroke-opacity="0.167" stroke-width="2" stroke-linecap="round"/><circle cx="350.0" cy="461.3" r="3.2" fill="#C9603D" fill-opacity="0.160"/><circle cx="475.0" cy="461.3" r="3.2" fill="#C9603D" fill-opacity="0.231"/><circle cx="600.0" cy="461.3" r="6.9" fill="none" stroke="#C9603D" stroke-opacity="0.123" stroke-width="2"/><path d="M614.0 461.3H711.0" stroke="#C9603D" stroke-opacity="0.086" stroke-width="1.5"/><circle cx="725.0" cy="461.3" r="8.8" fill="none" stroke="#C99A3E" stroke-opacity="0.080" stroke-width="2"/><circle cx="850.0" cy="461.3" r="3.2" fill="#C9603D" fill-opacity="0.255"/><path d="M864.0 461.3H961.0" stroke="#C9603D" stroke-opacity="0.178" stroke-width="1.5"/><circle cx="975.0" cy="461.3" r="3.2" fill="#C99A3E" fill-opacity="0.144"/><path d="M989.0 461.3H1086.0" stroke="#C99A3E" stroke-opacity="0.101" stroke-width="1.5"/><circle cx="1100.0" cy="461.3" r="3.2" fill="#C9603D" fill-opacity="0.279"/><circle cx="100.0" cy="565.0" r="3.2" fill="#C9603D" fill-opacity="0.220"/><circle cx="225.0" cy="565.0" r="6.6" fill="none" stroke="#C99A3E" stroke-opacity="0.095" stroke-width="2"/><rect x="336.5" y="551.5" width="27.0" height="27.0" rx="2" fill="none" stroke="#C9603D" stroke-opacity="0.092" stroke-width="2"/><path d="M465.3 565.0H484.7M475.0 555.3V574.7" stroke="#C99A3E" stroke-opacity="0.177" stroke-width="2" stroke-linecap="round"/><path d="M587.9 565.0H612.1M600.0 552.9V577.1" stroke="#C99A3E" stroke-opacity="0.175" stroke-width="2" stroke-linecap="round"/><circle cx="725.0" cy="565.0" r="8.1" fill="none" stroke="#C99A3E" stroke-opacity="0.232" stroke-width="2"/><circle cx="850.0" cy="565.0" r="3.2" fill="#C99A3E" fill-opacity="0.233"/><path d="M964.6 565.0H985.4M975.0 554.6V575.4" stroke="#C9603D" stroke-opacity="0.176" stroke-width="2" stroke-linecap="round"/><circle cx="1100.0" cy="565.0" r="9.5" fill="none" stroke="#C9603D" stroke-opacity="0.201" stroke-width="2"/>
  <rect x="40" y="40" width="1120" height="595" rx="10" fill="none" stroke="#C99A3E" stroke-opacity="0.18"/>
  <rect x="80" y="64" width="40" height="3" rx="1.5" fill="#C9603D"/>
  <text x="80" y="100" font-family="'Fraunces', Georgia, serif" font-size="26" font-weight="500" fill="#C99A3E" fill-opacity="0.92">AFM Studio</text>
  <text x="1120" y="96" font-family="'JetBrains Mono', monospace" font-size="14" letter-spacing="2" fill="#E8E3D8" fill-opacity="0.35" text-anchor="end">CONFIDENTIAL</text>
<g>
        <rect x="80" y="583" width="132" height="34" rx="6" fill="none" stroke="#C9603D" stroke-opacity="0.35"/>
        <text x="146" y="606" font-family="'JetBrains Mono', monospace" font-size="16" fill="#C9603D" fill-opacity="0.85" text-anchor="middle">Government</text>
      </g><g>
        <rect x="224" y="583" width="132" height="34" rx="6" fill="none" stroke="#C9603D" stroke-opacity="0.35"/>
        <text x="290" y="606" font-family="'JetBrains Mono', monospace" font-size="16" fill="#C9603D" fill-opacity="0.85" text-anchor="middle">Mobile Web</text>
      </g><g>
        <rect x="368" y="583" width="165" height="34" rx="6" fill="none" stroke="#C9603D" stroke-opacity="0.35"/>
        <text x="450.5" y="606" font-family="'JetBrains Mono', monospace" font-size="16" fill="#C9603D" fill-opacity="0.85" text-anchor="middle">Internal Tool</text>
      </g>
</svg>
