<svg xmlns="http://www.w3.org/2000/svg" width="1200" height="675" viewBox="0 0 1200 675" role="img" aria-label="eKiosk IKN cover">
  <rect width="1200" height="675" fill="#0D1B2A"/>
  <path d="M215.9 150.0H234.1M225.0 140.9V159.1" stroke="#C9603D" stroke-opacity="0.169" stroke-width="2" stroke-linecap="round"/><circle cx="350.0" cy="150.0" r="5.8" fill="none" stroke="#C99A3E" stroke-opacity="0.240" stroke-width="2"/><circle cx="475.0" cy="150.0" r="3.2" fill="#C9603D" fill-opacity="0.273"/><circle cx="600.0" cy="150.0" r="10.9" fill="none" stroke="#C99A3E" stroke-opacity="0.119" stroke-width="2"/><circle cx="725.0" cy="150.0" r="11.3" fill="none" stroke="#C99A3E" stroke-opacity="0.093" stroke-width="2"/><circle cx="850.0" cy="150.0" r="8.7" fill="none" stroke="#C9603D" stroke-opacity="0.197" stroke-width="2"/><path d="M864.0 150.0H961.0" stroke="#C9603D" stroke-opacity="0.138" stroke-width="1.5"/><circle cx="975.0" cy="150.0" r="3.2" fill="#C9603D" fill-opacity="0.216"/><circle cx="1100.0" cy="150.0" r="8.7" fill="none" stroke="#C99A3E" stroke-opacity="0.072" stroke-width="2"/><circle cx="100.0" cy="253.8" r="3.2" fill="#C99A3E" fill-opacity="0.121"/><circle cx="225.0" cy="253.8" r="3.2" fill="#C99A3E" fill-opacity="0.214"/><rect x="340.3" y="244.1" width="19.4" height="19.4" rx="2" fill="none" stroke="#C99A3E" stroke-opacity="0.168" stroke-width="2"/><circle cx="475.0" cy="253.8" r="9.5" fill="none" stroke="#C9603D" stroke-opacity="0.167" stroke-width="2"/><path d="M489.0 253.8H586.0" stroke="#C9603D" stroke-opacity="0.117" stroke-width="1.5"/><circle cx="600.0" cy="253.8" r="3.2" fill="#C99A3E" fill-opacity="0.265"/><path d="M614.0 253.8H711.0" stroke="#C99A3E" stroke-opacity="0.185" stroke-width="1.5"/><circle cx="725.0" cy="253.8" r="3.2" fill="#C99A3E" fill-opacity="0.129"/><path d="M864.0 253.8H961.0" stroke="#C9603D" stroke-opacity="0.071" stroke-width="1.5"/><rect x="966.0" y="244.8" width="18.0" height="18.0" rx="2" fill="none" stroke="#C9603D" stroke-opacity="0.136" stroke-width="2"/><circle cx="1100.0" cy="253.8" r="3.2" fill="#C99A3E" fill-opacity="0.228"/><rect x="88.7" y="346.2" width="22.6" height="22.6" rx="2" fill="none" stroke="#C99A3E" stroke-opacity="0.071" stroke-width="2"/><circle cx="225.0" cy="357.5" r="3.2" fill="#C9603D" fill-opacity="0.208"/><path d="M239.0 357.5H336.0" stroke="#C9603D" stroke-opacity="0.146" stroke-width="1.5"/><path d="M337.4 357.5H362.6M350.0 344.9V370.1" stroke="#C99A3E" stroke-opacity="0.077" stroke-width="2" stroke-linecap="round"/><path d="M364.0 357.5H461.0" stroke="#C99A3E" stroke-opacity="0.054" stroke-width="1.5"/><circle cx="475.0" cy="357.5" r="3.2" fill="#C99A3E" fill-opacity="0.137"/><path d="M489.0 357.5H586.0" stroke="#C99A3E" stroke-opacity="0.096" stroke-width="1.5"/><circle cx="600.0" cy="357.5" r="3.2" fill="#C9603D" fill-opacity="0.260"/><circle cx="725.0" cy="357.5" r="3.2" fill="#C99A3E" fill-opacity="0.089"/><path d="M739.0 357.5H836.0" stroke="#C99A3E" stroke-opacity="0.062" stroke-width="1.5"/><circle cx="850.0" cy="357.5" r="7.3" fill="none" stroke="#C9603D" stroke-opacity="0.102" stroke-width="2"/><circle cx="975.0" cy="357.5" r="3.2" fill="#C99A3E" fill-opacity="0.095"/><circle cx="1100.0" cy="357.5" r="5.4" fill="none" stroke="#C9603D" stroke-opacity="0.169" stroke-width="2"/><circle cx="100.0" cy="461.3" r="3.2" fill="#C99A3E" fill-opacity="0.166"/><rect x="214.3" y="450.6" width="21.4" height="21.4" rx="2" fill="none" stroke="#C99A3E" stroke-opacity="0.120" stroke-width="2"/><circle cx="350.0" cy="461.3" r="11.8" fill="none" stroke="#C9603D" stroke-opacity="0.274" stroke-width="2"/><path d="M587.9 461.3H612.1M600.0 449.2V473.3" stroke="#C99A3E" stroke-opacity="0.158" stroke-width="2" stroke-linecap="round"/><circle cx="725.0" cy="461.3" r="9.1" fill="none" stroke="#C99A3E" stroke-opacity="0.069" stroke-width="2"/><path d="M841.6 461.3H858.4M850.0 452.9V469.6" stroke="#C99A3E" stroke-opacity="0.187" stroke-width="2" stroke-linecap="round"/><circle cx="975.0" cy="461.3" r="3.2" fill="#C99A3E" fill-opacity="0.219"/><circle cx="100.0" cy="565.0" r="3.2" fill="#C9603D" fill-opacity="0.140"/><circle cx="225.0" cy="565.0" r="10.4" fill="none" stroke="#C99A3E" stroke-opacity="0.073" stroke-width="2"/><circle cx="350.0" cy="565.0" r="10.3" fill="none" stroke="#C99A3E" stroke-opacity="0.216" stroke-width="2"/><path d="M364.0 565.0H461.0" stroke="#C99A3E" stroke-opacity="0.151" stroke-width="1.5"/><path d="M465.3 565.0H484.7M475.0 555.3V574.7" stroke="#C9603D" stroke-opacity="0.159" stroke-width="2" stroke-linecap="round"/><circle cx="600.0" cy="565.0" r="3.2" fill="#C9603D" fill-opacity="0.171"/><circle cx="850.0" cy="565.0" r="6.7" fill="none" stroke="#C99A3E" stroke-opacity="0.074" stroke-width="2"/><circle cx="975.0" cy="565.0" r="10.6" fill="none" stroke="#C9603D" stroke-opacity="0.157" stroke-width="2"/><path d="M989.0 565.0H1086.0" stroke="#C9603D" stroke-opacity="0.110" stroke-width="1.5"/><circle cx="1100.0" cy="565.0" r="11.2" fill="none" stroke="#C9603D" stroke-opacity="0.121" stroke-width="2"/>
  <rect x="40" y="40" width="1120" height="595" rx="10" fill="none" stroke="#C99A3E" stroke-opacity="0.18"/>
  <rect x="80" y="64" width="40" height="3" rx="1.5" fill="#C99A3E"/>
  <text x="80" y="100" font-family="'Fraunces', Georgia, serif" font-size="26" font-weight="500" fill="#C99A3E" fill-opacity="0.92">AFM Studio</text>
  <text x="1120" y="96" font-family="'JetBrains Mono', monospace" font-size="14" letter-spacing="2" fill="#E8E3D8" fill-opacity="0.35" text-anchor="end">CONFIDENTIAL</text>
<g>
        <rect x="80" y="583" width="132" height="34" rx="6" fill="none" stroke="#C99A3E" stroke-opacity="0.35"/>
        <text x="146" y="606" font-family="'JetBrains Mono', monospace" font-size="16" fill="#C99A3E" fill-opacity="0.85" text-anchor="middle">Government</text>
      </g><g>
        <rect x="224" y="583" width="132" height="34" rx="6" fill="none" stroke="#C99A3E" stroke-opacity="0.35"/>
        <text x="290" y="606" font-family="'JetBrains Mono', monospace" font-size="16" fill="#C99A3E" fill-opacity="0.85" text-anchor="middle">Smart City</text>
      </g><g>
        <rect x="368" y="583" width="99" height="34" rx="6" fill="none" stroke="#C99A3E" stroke-opacity="0.35"/>
        <text x="417.5" y="606" font-family="'JetBrains Mono', monospace" font-size="16" fill="#C99A3E" fill-opacity="0.85" text-anchor="middle">Web App</text>
      </g>
</svg>
