<svg xmlns="http://www.w3.org/2000/svg" width="1200" height="675" viewBox="0 0 1200 675" role="img" aria-label="WA Daily Scrum Bot cover">
  <rect width="1200" height="675" fill="#0D1B2A"/>
  <circle cx="100.0" cy="150.0" r="5.3" fill="none" stroke="#C99A3E" stroke-opacity="0.138" stroke-width="2"/><path d="M215.4 150.0H234.6M225.0 140.4V159.6" stroke="#C99A3E" stroke-opacity="0.226" stroke-width="2" stroke-linecap="round"/><path d="M239.0 150.0H336.0" stroke="#C99A3E" stroke-opacity="0.158" stroke-width="1.5"/><circle cx="350.0" cy="150.0" r="11.7" fill="none" stroke="#C9603D" stroke-opacity="0.280" stroke-width="2"/><path d="M364.0 150.0H461.0" stroke="#C9603D" stroke-opacity="0.196" stroke-width="1.5"/><circle cx="475.0" cy="150.0" r="6.6" fill="none" stroke="#C99A3E" stroke-opacity="0.142" stroke-width="2"/><circle cx="600.0" cy="150.0" r="9.0" fill="none" stroke="#C9603D" stroke-opacity="0.124" stroke-width="2"/><path d="M712.8 150.0H737.2M725.0 137.8V162.2" stroke="#C9603D" stroke-opacity="0.172" stroke-width="2" stroke-linecap="round"/><circle cx="850.0" cy="150.0" r="9.1" fill="none" stroke="#C9603D" stroke-opacity="0.225" stroke-width="2"/><path d="M864.0 150.0H961.0" stroke="#C9603D" stroke-opacity="0.158" stroke-width="1.5"/><circle cx="975.0" cy="150.0" r="3.2" fill="#C99A3E" fill-opacity="0.173"/><path d="M989.0 150.0H1086.0" stroke="#C99A3E" stroke-opacity="0.121" stroke-width="1.5"/><circle cx="1100.0" cy="150.0" r="6.8" fill="none" stroke="#C99A3E" stroke-opacity="0.166" stroke-width="2"/><circle cx="100.0" cy="253.8" r="6.3" fill="none" stroke="#C9603D" stroke-opacity="0.180" stroke-width="2"/><circle cx="225.0" cy="253.8" r="3.2" fill="#C9603D" fill-opacity="0.218"/><circle cx="350.0" cy="253.8" r="10.5" fill="none" stroke="#C9603D" stroke-opacity="0.117" stroke-width="2"/><rect x="465.0" y="243.8" width="20.0" height="20.0" rx="2" fill="none" stroke="#C99A3E" stroke-opacity="0.075" stroke-width="2"/><circle cx="600.0" cy="253.8" r="3.2" fill="#C99A3E" fill-opacity="0.220"/><circle cx="850.0" cy="253.8" r="3.2" fill="#C99A3E" fill-opacity="0.196"/><circle cx="975.0" cy="253.8" r="6.8" fill="none" stroke="#C9603D" stroke-opacity="0.144" stroke-width="2"/><circle cx="1100.0" cy="253.8" r="11.8" fill="none" stroke="#C99A3E" stroke-opacity="0.161" stroke-width="2"/><circle cx="100.0" cy="357.5" r="6.4" fill="none" stroke="#C9603D" stroke-opacity="0.128" stroke-width="2"/><path d="M114.0 357.5H211.0" stroke="#C9603D" stroke-opacity="0.090" stroke-width="1.5"/><rect x="211.1" y="343.6" width="27.8" height="27.8" rx="2" fill="none" stroke="#C9603D" stroke-opacity="0.091" stroke-width="2"/><circle cx="350.0" cy="357.5" r="11.3" fill="none" stroke="#C9603D" stroke-opacity="0.190" stroke-width="2"/><circle cx="475.0" cy="357.5" r="8.3" fill="none" stroke="#C9603D" stroke-opacity="0.176" stroke-width="2"/><path d="M489.0 357.5H586.0" stroke="#C9603D" stroke-opacity="0.123" stroke-width="1.5"/><circle cx="600.0" cy="357.5" r="8.0" fill="none" stroke="#C9603D" stroke-opacity="0.140" stroke-width="2"/><circle cx="725.0" cy="357.5" r="11.4" fill="none" stroke="#C9603D" stroke-opacity="0.163" stroke-width="2"/><circle cx="850.0" cy="357.5" r="11.8" fill="none" stroke="#C99A3E" stroke-opacity="0.273" stroke-width="2"/><path d="M864.0 357.5H961.0" stroke="#C99A3E" stroke-opacity="0.191" stroke-width="1.5"/><path d="M965.4 357.5H984.6M975.0 347.9V367.1" stroke="#C99A3E" stroke-opacity="0.134" stroke-width="2" stroke-linecap="round"/><path d="M1087.2 357.5H1112.8M1100.0 344.7V370.3" stroke="#C9603D" stroke-opacity="0.172" stroke-width="2" stroke-linecap="round"/><path d="M92.5 461.3H107.5M100.0 453.7V468.8" stroke="#C99A3E" stroke-opacity="0.132" stroke-width="2" stroke-linecap="round"/><circle cx="225.0" cy="461.3" r="3.2" fill="#C99A3E" fill-opacity="0.200"/><path d="M342.5 461.3H357.5M350.0 453.8V468.7" stroke="#C9603D" stroke-opacity="0.127" stroke-width="2" stroke-linecap="round"/><path d="M364.0 461.3H461.0" stroke="#C9603D" stroke-opacity="0.089" stroke-width="1.5"/><circle cx="475.0" cy="461.3" r="3.2" fill="#C9603D" fill-opacity="0.073"/><rect x="586.2" y="447.4" width="27.6" height="27.6" rx="2" fill="none" stroke="#C9603D" stroke-opacity="0.272" stroke-width="2"/><path d="M739.0 461.3H836.0" stroke="#C9603D" stroke-opacity="0.167" stroke-width="1.5"/><circle cx="850.0" cy="461.3" r="8.6" fill="none" stroke="#C9603D" stroke-opacity="0.224" stroke-width="2"/><rect x="963.9" y="450.1" width="22.2" height="22.2" rx="2" fill="none" stroke="#C99A3E" stroke-opacity="0.204" stroke-width="2"/><path d="M1089.8 461.3H1110.2M1100.0 451.1V471.4" stroke="#C9603D" stroke-opacity="0.062" stroke-width="2" stroke-linecap="round"/><circle cx="100.0" cy="565.0" r="7.6" fill="none" stroke="#C9603D" stroke-opacity="0.060" stroke-width="2"/><rect x="216.3" y="556.3" width="17.4" height="17.4" rx="2" fill="none" stroke="#C99A3E" stroke-opacity="0.115" stroke-width="2"/><circle cx="350.0" cy="565.0" r="10.8" fill="none" stroke="#C9603D" stroke-opacity="0.174" stroke-width="2"/><path d="M364.0 565.0H461.0" stroke="#C9603D" stroke-opacity="0.122" stroke-width="1.5"/><rect x="461.5" y="551.5" width="27.0" height="27.0" rx="2" fill="none" stroke="#C9603D" stroke-opacity="0.230" stroke-width="2"/><rect x="588.6" y="553.6" width="22.8" height="22.8" rx="2" fill="none" stroke="#C9603D" stroke-opacity="0.239" stroke-width="2"/><circle cx="725.0" cy="565.0" r="3.2" fill="#C9603D" fill-opacity="0.106"/><path d="M739.0 565.0H836.0" stroke="#C9603D" stroke-opacity="0.074" stroke-width="1.5"/><circle cx="850.0" cy="565.0" r="3.2" fill="#C9603D" fill-opacity="0.207"/><rect x="961.2" y="551.2" width="27.6" height="27.6" rx="2" fill="none" stroke="#C99A3E" stroke-opacity="0.146" stroke-width="2"/><path d="M1091.2 565.0H1108.8M1100.0 556.2V573.8" stroke="#C9603D" stroke-opacity="0.113" stroke-width="2" stroke-linecap="round"/>
  <rect x="40" y="40" width="1120" height="595" rx="10" fill="none" stroke="#C99A3E" stroke-opacity="0.18"/>
  <rect x="80" y="64" width="40" height="3" rx="1.5" fill="#C99A3E"/>
  <text x="80" y="100" font-family="'Fraunces', Georgia, serif" font-size="26" font-weight="500" fill="#C99A3E" fill-opacity="0.92">AFM Studio</text>
  <text x="1120" y="96" font-family="'JetBrains Mono', monospace" font-size="14" letter-spacing="2" fill="#E8E3D8" fill-opacity="0.35" text-anchor="end">CONFIDENTIAL</text>
<g>
        <rect x="80" y="583" width="165" height="34" rx="6" fill="none" stroke="#C99A3E" stroke-opacity="0.35"/>
        <text x="162.5" y="606" font-family="'JetBrains Mono', monospace" font-size="16" fill="#C99A3E" fill-opacity="0.85" text-anchor="middle">Internal Tool</text>
      </g><g>
        <rect x="257" y="583" width="132" height="34" rx="6" fill="none" stroke="#C99A3E" stroke-opacity="0.35"/>
        <text x="323" y="606" font-family="'JetBrains Mono', monospace" font-size="16" fill="#C99A3E" fill-opacity="0.85" text-anchor="middle">Automation</text>
      </g><g>
        <rect x="401" y="583" width="55" height="34" rx="6" fill="none" stroke="#C99A3E" stroke-opacity="0.35"/>
        <text x="428.5" y="606" font-family="'JetBrains Mono', monospace" font-size="16" fill="#C99A3E" fill-opacity="0.85" text-anchor="middle">Bot</text>
      </g>
</svg>
