<svg xmlns="http://www.w3.org/2000/svg" width="1200" height="675" viewBox="0 0 1200 675" role="img" aria-label="E-Monev IKN cover">
  <rect width="1200" height="675" fill="#0D1B2A"/>
  <circle cx="100.0" cy="150.0" r="3.2" fill="#C99A3E" fill-opacity="0.157"/><path d="M114.0 150.0H211.0" stroke="#C99A3E" stroke-opacity="0.110" stroke-width="1.5"/><circle cx="225.0" cy="150.0" r="5.9" fill="none" stroke="#C9603D" stroke-opacity="0.192" stroke-width="2"/><circle cx="350.0" cy="150.0" r="3.2" fill="#C99A3E" fill-opacity="0.081"/><path d="M462.7 150.0H487.3M475.0 137.7V162.3" stroke="#C99A3E" stroke-opacity="0.088" stroke-width="2" stroke-linecap="round"/><circle cx="600.0" cy="150.0" r="3.2" fill="#C99A3E" fill-opacity="0.169"/><circle cx="725.0" cy="150.0" r="10.3" fill="none" stroke="#C9603D" stroke-opacity="0.162" stroke-width="2"/><path d="M739.0 150.0H836.0" stroke="#C9603D" stroke-opacity="0.113" stroke-width="1.5"/><path d="M841.1 150.0H858.9M850.0 141.1V158.9" stroke="#C9603D" stroke-opacity="0.244" stroke-width="2" stroke-linecap="round"/><path d="M965.5 150.0H984.5M975.0 140.5V159.5" stroke="#C9603D" stroke-opacity="0.162" stroke-width="2" stroke-linecap="round"/><circle cx="1100.0" cy="150.0" r="5.1" fill="none" stroke="#C9603D" stroke-opacity="0.156" stroke-width="2"/><circle cx="100.0" cy="253.8" r="8.5" fill="none" stroke="#C9603D" stroke-opacity="0.265" stroke-width="2"/><circle cx="225.0" cy="253.8" r="3.2" fill="#C99A3E" fill-opacity="0.094"/><path d="M239.0 253.8H336.0" stroke="#C99A3E" stroke-opacity="0.066" stroke-width="1.5"/><circle cx="350.0" cy="253.8" r="11.1" fill="none" stroke="#C9603D" stroke-opacity="0.227" stroke-width="2"/><path d="M364.0 253.8H461.0" stroke="#C9603D" stroke-opacity="0.159" stroke-width="1.5"/><path d="M466.6 253.8H483.4M475.0 245.4V262.1" stroke="#C9603D" stroke-opacity="0.220" stroke-width="2" stroke-linecap="round"/><rect x="588.8" y="242.6" width="22.4" height="22.4" rx="2" fill="none" stroke="#C9603D" stroke-opacity="0.251" stroke-width="2"/><path d="M614.0 253.8H711.0" stroke="#C9603D" stroke-opacity="0.176" stroke-width="1.5"/><circle cx="725.0" cy="253.8" r="3.2" fill="#C9603D" fill-opacity="0.208"/><circle cx="850.0" cy="253.8" r="8.4" fill="none" stroke="#C99A3E" stroke-opacity="0.267" stroke-width="2"/><circle cx="1100.0" cy="253.8" r="3.2" fill="#C99A3E" fill-opacity="0.219"/><circle cx="100.0" cy="357.5" r="3.2" fill="#C99A3E" fill-opacity="0.165"/><path d="M114.0 357.5H211.0" stroke="#C99A3E" stroke-opacity="0.115" stroke-width="1.5"/><circle cx="225.0" cy="357.5" r="3.2" fill="#C9603D" fill-opacity="0.217"/><path d="M341.5 357.5H358.5M350.0 349.0V366.0" stroke="#C99A3E" stroke-opacity="0.261" stroke-width="2" stroke-linecap="round"/><path d="M364.0 357.5H461.0" stroke="#C99A3E" stroke-opacity="0.183" stroke-width="1.5"/><circle cx="475.0" cy="357.5" r="6.6" fill="none" stroke="#C9603D" stroke-opacity="0.184" stroke-width="2"/><circle cx="600.0" cy="357.5" r="3.2" fill="#C9603D" fill-opacity="0.096"/><circle cx="725.0" cy="357.5" r="3.2" fill="#C9603D" fill-opacity="0.196"/><path d="M739.0 357.5H836.0" stroke="#C9603D" stroke-opacity="0.137" stroke-width="1.5"/><rect x="837.1" y="344.6" width="25.8" height="25.8" rx="2" fill="none" stroke="#C99A3E" stroke-opacity="0.221" stroke-width="2"/><circle cx="1100.0" cy="357.5" r="6.6" fill="none" stroke="#C9603D" stroke-opacity="0.252" stroke-width="2"/><rect x="87.2" y="448.4" width="25.6" height="25.6" rx="2" fill="none" stroke="#C9603D" stroke-opacity="0.272" stroke-width="2"/><circle cx="225.0" cy="461.3" r="3.2" fill="#C9603D" fill-opacity="0.206"/><path d="M239.0 461.3H336.0" stroke="#C9603D" stroke-opacity="0.144" stroke-width="1.5"/><circle cx="350.0" cy="461.3" r="11.0" fill="none" stroke="#C9603D" stroke-opacity="0.199" stroke-width="2"/><circle cx="475.0" cy="461.3" r="6.3" fill="none" stroke="#C9603D" stroke-opacity="0.123" stroke-width="2"/><path d="M489.0 461.3H586.0" stroke="#C9603D" stroke-opacity="0.086" stroke-width="1.5"/><path d="M592.0 461.3H608.0M600.0 453.2V469.3" stroke="#C99A3E" stroke-opacity="0.197" stroke-width="2" stroke-linecap="round"/><circle cx="850.0" cy="461.3" r="3.2" fill="#C9603D" fill-opacity="0.081"/><circle cx="975.0" cy="461.3" r="3.2" fill="#C9603D" fill-opacity="0.064"/><circle cx="1100.0" cy="461.3" r="3.2" fill="#C99A3E" fill-opacity="0.250"/><circle cx="100.0" cy="565.0" r="7.0" fill="none" stroke="#C99A3E" stroke-opacity="0.107" stroke-width="2"/><path d="M114.0 565.0H211.0" stroke="#C99A3E" stroke-opacity="0.075" stroke-width="1.5"/><circle cx="225.0" cy="565.0" r="6.1" fill="none" stroke="#C99A3E" stroke-opacity="0.227" stroke-width="2"/><circle cx="350.0" cy="565.0" r="10.9" fill="none" stroke="#C99A3E" stroke-opacity="0.110" stroke-width="2"/><circle cx="475.0" cy="565.0" r="11.2" fill="none" stroke="#C99A3E" stroke-opacity="0.279" stroke-width="2"/><circle cx="600.0" cy="565.0" r="5.1" fill="none" stroke="#C9603D" stroke-opacity="0.099" stroke-width="2"/><circle cx="725.0" cy="565.0" r="11.5" fill="none" stroke="#C99A3E" stroke-opacity="0.253" stroke-width="2"/><circle cx="975.0" cy="565.0" r="8.1" fill="none" stroke="#C9603D" stroke-opacity="0.221" stroke-width="2"/><rect x="1087.4" y="552.4" width="25.2" height="25.2" rx="2" fill="none" stroke="#C9603D" stroke-opacity="0.172" stroke-width="2"/>
  <rect x="40" y="40" width="1120" height="595" rx="10" fill="none" stroke="#C99A3E" stroke-opacity="0.18"/>
  <rect x="80" y="64" width="40" height="3" rx="1.5" fill="#C9603D"/>
  <text x="80" y="100" font-family="'Fraunces', Georgia, serif" font-size="26" font-weight="500" fill="#C99A3E" fill-opacity="0.92">AFM Studio</text>
  <text x="1120" y="96" font-family="'JetBrains Mono', monospace" font-size="14" letter-spacing="2" fill="#E8E3D8" fill-opacity="0.35" text-anchor="end">CONFIDENTIAL</text>
<g>
        <rect x="80" y="583" width="132" height="34" rx="6" fill="none" stroke="#C9603D" stroke-opacity="0.35"/>
        <text x="146" y="606" font-family="'JetBrains Mono', monospace" font-size="16" fill="#C9603D" fill-opacity="0.85" text-anchor="middle">Government</text>
      </g><g>
        <rect x="224" y="583" width="165" height="34" rx="6" fill="none" stroke="#C9603D" stroke-opacity="0.35"/>
        <text x="306.5" y="606" font-family="'JetBrains Mono', monospace" font-size="16" fill="#C9603D" fill-opacity="0.85" text-anchor="middle">Data Platform</text>
      </g><g>
        <rect x="401" y="583" width="99" height="34" rx="6" fill="none" stroke="#C9603D" stroke-opacity="0.35"/>
        <text x="450.5" y="606" font-family="'JetBrains Mono', monospace" font-size="16" fill="#C9603D" fill-opacity="0.85" text-anchor="middle">Web App</text>
      </g>
</svg>
