<svg xmlns="http://www.w3.org/2000/svg" width="1200" height="675" viewBox="0 0 1200 675" role="img" aria-label="JDIH OIKN cover">
  <rect width="1200" height="675" fill="#0D1B2A"/>
  <circle cx="100.0" cy="150.0" r="5.7" fill="none" stroke="#C99A3E" stroke-opacity="0.089" stroke-width="2"/><circle cx="225.0" cy="150.0" r="3.2" fill="#C9603D" fill-opacity="0.097"/><path d="M239.0 150.0H336.0" stroke="#C9603D" stroke-opacity="0.068" stroke-width="1.5"/><circle cx="350.0" cy="150.0" r="5.3" fill="none" stroke="#C99A3E" stroke-opacity="0.215" stroke-width="2"/><circle cx="475.0" cy="150.0" r="6.4" fill="none" stroke="#C9603D" stroke-opacity="0.242" stroke-width="2"/><path d="M489.0 150.0H586.0" stroke="#C9603D" stroke-opacity="0.169" stroke-width="1.5"/><path d="M592.1 150.0H607.9M600.0 142.1V157.9" stroke="#C9603D" stroke-opacity="0.137" stroke-width="2" stroke-linecap="round"/><path d="M614.0 150.0H711.0" stroke="#C9603D" stroke-opacity="0.096" stroke-width="1.5"/><circle cx="725.0" cy="150.0" r="3.2" fill="#C9603D" fill-opacity="0.277"/><path d="M739.0 150.0H836.0" stroke="#C9603D" stroke-opacity="0.194" stroke-width="1.5"/><circle cx="850.0" cy="150.0" r="6.1" fill="none" stroke="#C9603D" stroke-opacity="0.221" stroke-width="2"/><rect x="965.4" y="140.4" width="19.2" height="19.2" rx="2" fill="none" stroke="#C99A3E" stroke-opacity="0.275" stroke-width="2"/><circle cx="1100.0" cy="150.0" r="8.7" fill="none" stroke="#C99A3E" stroke-opacity="0.160" stroke-width="2"/><path d="M92.9 253.8H107.1M100.0 246.6V260.9" stroke="#C9603D" stroke-opacity="0.074" stroke-width="2" stroke-linecap="round"/><circle cx="225.0" cy="253.8" r="10.8" fill="none" stroke="#C99A3E" stroke-opacity="0.099" stroke-width="2"/><path d="M239.0 253.8H336.0" stroke="#C99A3E" stroke-opacity="0.069" stroke-width="1.5"/><circle cx="350.0" cy="253.8" r="9.4" fill="none" stroke="#C99A3E" stroke-opacity="0.104" stroke-width="2"/><circle cx="475.0" cy="253.8" r="11.3" fill="none" stroke="#C9603D" stroke-opacity="0.272" stroke-width="2"/><circle cx="600.0" cy="253.8" r="6.5" fill="none" stroke="#C99A3E" stroke-opacity="0.113" stroke-width="2"/><path d="M614.0 253.8H711.0" stroke="#C99A3E" stroke-opacity="0.079" stroke-width="1.5"/><circle cx="725.0" cy="253.8" r="10.1" fill="none" stroke="#C9603D" stroke-opacity="0.202" stroke-width="2"/><circle cx="850.0" cy="253.8" r="3.2" fill="#C9603D" fill-opacity="0.182"/><circle cx="975.0" cy="253.8" r="9.9" fill="none" stroke="#C99A3E" stroke-opacity="0.138" stroke-width="2"/><circle cx="100.0" cy="357.5" r="3.2" fill="#C99A3E" fill-opacity="0.201"/><path d="M212.4 357.5H237.6M225.0 344.9V370.1" stroke="#C9603D" stroke-opacity="0.083" stroke-width="2" stroke-linecap="round"/><circle cx="350.0" cy="357.5" r="5.1" fill="none" stroke="#C9603D" stroke-opacity="0.242" stroke-width="2"/><circle cx="475.0" cy="357.5" r="3.2" fill="#C9603D" fill-opacity="0.275"/><circle cx="600.0" cy="357.5" r="5.4" fill="none" stroke="#C99A3E" stroke-opacity="0.186" stroke-width="2"/><circle cx="725.0" cy="357.5" r="3.2" fill="#C9603D" fill-opacity="0.228"/><circle cx="850.0" cy="357.5" r="10.9" fill="none" stroke="#C9603D" stroke-opacity="0.191" stroke-width="2"/><circle cx="975.0" cy="357.5" r="11.3" fill="none" stroke="#C9603D" stroke-opacity="0.253" stroke-width="2"/><rect x="1091.5" y="349.0" width="17.0" height="17.0" rx="2" fill="none" stroke="#C99A3E" stroke-opacity="0.159" stroke-width="2"/><path d="M92.2 461.3H107.8M100.0 453.5V469.0" stroke="#C99A3E" stroke-opacity="0.240" stroke-width="2" stroke-linecap="round"/><circle cx="225.0" cy="461.3" r="3.2" fill="#C99A3E" fill-opacity="0.127"/><path d="M341.6 461.3H358.4M350.0 452.9V469.6" stroke="#C9603D" stroke-opacity="0.146" stroke-width="2" stroke-linecap="round"/><circle cx="475.0" cy="461.3" r="3.2" fill="#C9603D" fill-opacity="0.148"/><circle cx="600.0" cy="461.3" r="9.0" fill="none" stroke="#C9603D" stroke-opacity="0.117" stroke-width="2"/><path d="M713.0 461.3H737.0M725.0 449.3V473.2" stroke="#C99A3E" stroke-opacity="0.250" stroke-width="2" stroke-linecap="round"/><circle cx="850.0" cy="461.3" r="9.1" fill="none" stroke="#C9603D" stroke-opacity="0.265" stroke-width="2"/><path d="M967.2 461.3H982.8M975.0 453.4V469.1" stroke="#C99A3E" stroke-opacity="0.174" stroke-width="2" stroke-linecap="round"/><circle cx="1100.0" cy="461.3" r="3.2" fill="#C9603D" fill-opacity="0.226"/><circle cx="100.0" cy="565.0" r="3.2" fill="#C99A3E" fill-opacity="0.201"/><circle cx="225.0" cy="565.0" r="6.2" fill="none" stroke="#C99A3E" stroke-opacity="0.072" stroke-width="2"/><circle cx="350.0" cy="565.0" r="3.2" fill="#C9603D" fill-opacity="0.278"/><circle cx="475.0" cy="565.0" r="3.2" fill="#C99A3E" fill-opacity="0.068"/><circle cx="600.0" cy="565.0" r="6.4" fill="none" stroke="#C9603D" stroke-opacity="0.226" stroke-width="2"/><circle cx="725.0" cy="565.0" r="11.3" fill="none" stroke="#C9603D" stroke-opacity="0.085" stroke-width="2"/><circle cx="850.0" cy="565.0" r="11.7" fill="none" stroke="#C9603D" stroke-opacity="0.072" stroke-width="2"/><circle cx="975.0" cy="565.0" r="7.3" fill="none" stroke="#C99A3E" stroke-opacity="0.244" stroke-width="2"/><path d="M1090.0 565.0H1110.0M1100.0 555.0V575.0" stroke="#C9603D" stroke-opacity="0.265" stroke-width="2" stroke-linecap="round"/>
  <rect x="40" y="40" width="1120" height="595" rx="10" fill="none" stroke="#C99A3E" stroke-opacity="0.18"/>
  <rect x="80" y="64" width="40" height="3" rx="1.5" fill="#C99A3E"/>
  <text x="80" y="100" font-family="'Fraunces', Georgia, serif" font-size="26" font-weight="500" fill="#C99A3E" fill-opacity="0.92">AFM Studio</text>
  <text x="1120" y="96" font-family="'JetBrains Mono', monospace" font-size="14" letter-spacing="2" fill="#E8E3D8" fill-opacity="0.35" text-anchor="end">CASE STUDY</text>
<g>
        <rect x="80" y="583" width="132" height="34" rx="6" fill="none" stroke="#C99A3E" stroke-opacity="0.35"/>
        <text x="146" y="606" font-family="'JetBrains Mono', monospace" font-size="16" fill="#C99A3E" fill-opacity="0.85" text-anchor="middle">Government</text>
      </g><g>
        <rect x="224" y="583" width="99" height="34" rx="6" fill="none" stroke="#C99A3E" stroke-opacity="0.35"/>
        <text x="273.5" y="606" font-family="'JetBrains Mono', monospace" font-size="16" fill="#C99A3E" fill-opacity="0.85" text-anchor="middle">Web App</text>
      </g><g>
        <rect x="335" y="583" width="165" height="34" rx="6" fill="none" stroke="#C99A3E" stroke-opacity="0.35"/>
        <text x="417.5" y="606" font-family="'JetBrains Mono', monospace" font-size="16" fill="#C99A3E" fill-opacity="0.85" text-anchor="middle">Internal Tool</text>
      </g>
</svg>
