<svg xmlns="http://www.w3.org/2000/svg" width="1200" height="675" viewBox="0 0 1200 675" role="img" aria-label="Cubiq cover">
  <rect width="1200" height="675" fill="#0D1B2A"/>
  <rect x="90.8" y="140.8" width="18.4" height="18.4" rx="2" fill="none" stroke="#C99A3E" stroke-opacity="0.239" stroke-width="2"/><path d="M114.0 150.0H211.0" stroke="#C99A3E" stroke-opacity="0.167" stroke-width="1.5"/><circle cx="225.0" cy="150.0" r="7.8" fill="none" stroke="#C99A3E" stroke-opacity="0.172" stroke-width="2"/><circle cx="350.0" cy="150.0" r="3.2" fill="#C9603D" fill-opacity="0.278"/><circle cx="475.0" cy="150.0" r="9.6" fill="none" stroke="#C99A3E" stroke-opacity="0.101" stroke-width="2"/><circle cx="725.0" cy="150.0" r="3.2" fill="#C9603D" fill-opacity="0.264"/><circle cx="850.0" cy="150.0" r="3.2" fill="#C9603D" fill-opacity="0.175"/><path d="M864.0 150.0H961.0" stroke="#C9603D" stroke-opacity="0.122" stroke-width="1.5"/><circle cx="975.0" cy="150.0" r="6.3" fill="none" stroke="#C99A3E" stroke-opacity="0.117" stroke-width="2"/><circle cx="1100.0" cy="150.0" r="9.9" fill="none" stroke="#C9603D" stroke-opacity="0.070" stroke-width="2"/><circle cx="100.0" cy="253.8" r="7.8" fill="none" stroke="#C9603D" stroke-opacity="0.216" stroke-width="2"/><path d="M214.0 253.8H236.0M225.0 242.7V264.8" stroke="#C99A3E" stroke-opacity="0.233" stroke-width="2" stroke-linecap="round"/><path d="M239.0 253.8H336.0" stroke="#C99A3E" stroke-opacity="0.163" stroke-width="1.5"/><path d="M338.3 253.8H361.7M350.0 242.1V265.4" stroke="#C99A3E" stroke-opacity="0.237" stroke-width="2" stroke-linecap="round"/><circle cx="475.0" cy="253.8" r="3.2" fill="#C9603D" fill-opacity="0.131"/><circle cx="600.0" cy="253.8" r="3.2" fill="#C99A3E" fill-opacity="0.207"/><circle cx="725.0" cy="253.8" r="3.2" fill="#C99A3E" fill-opacity="0.163"/><circle cx="850.0" cy="253.8" r="3.2" fill="#C9603D" fill-opacity="0.183"/><path d="M967.2 253.8H982.8M975.0 246.0V261.5" stroke="#C99A3E" stroke-opacity="0.208" stroke-width="2" stroke-linecap="round"/><circle cx="100.0" cy="357.5" r="5.8" fill="none" stroke="#C99A3E" stroke-opacity="0.257" stroke-width="2"/><path d="M212.6 357.5H237.4M225.0 345.1V369.9" stroke="#C99A3E" stroke-opacity="0.103" stroke-width="2" stroke-linecap="round"/><circle cx="350.0" cy="357.5" r="10.0" fill="none" stroke="#C9603D" stroke-opacity="0.095" stroke-width="2"/><path d="M462.4 357.5H487.6M475.0 344.9V370.1" stroke="#C9603D" stroke-opacity="0.203" stroke-width="2" stroke-linecap="round"/><circle cx="725.0" cy="357.5" r="3.2" fill="#C9603D" fill-opacity="0.163"/><path d="M739.0 357.5H836.0" stroke="#C9603D" stroke-opacity="0.114" stroke-width="1.5"/><path d="M842.9 357.5H857.1M850.0 350.4V364.6" stroke="#C99A3E" stroke-opacity="0.188" stroke-width="2" stroke-linecap="round"/><circle cx="1100.0" cy="357.5" r="3.2" fill="#C99A3E" fill-opacity="0.065"/><circle cx="350.0" cy="461.3" r="3.2" fill="#C9603D" fill-opacity="0.101"/><rect x="461.7" y="447.9" width="26.6" height="26.6" rx="2" fill="none" stroke="#C99A3E" stroke-opacity="0.082" stroke-width="2"/><path d="M489.0 461.3H586.0" stroke="#C99A3E" stroke-opacity="0.057" stroke-width="1.5"/><circle cx="725.0" cy="461.3" r="6.1" fill="none" stroke="#C9603D" stroke-opacity="0.247" stroke-width="2"/><rect x="841.4" y="452.6" width="17.2" height="17.2" rx="2" fill="none" stroke="#C99A3E" stroke-opacity="0.230" stroke-width="2"/><circle cx="975.0" cy="461.3" r="6.0" fill="none" stroke="#C9603D" stroke-opacity="0.181" stroke-width="2"/><path d="M1087.5 461.3H1112.5M1100.0 448.7V473.8" stroke="#C99A3E" stroke-opacity="0.151" stroke-width="2" stroke-linecap="round"/><circle cx="100.0" cy="565.0" r="3.2" fill="#C9603D" fill-opacity="0.140"/><circle cx="225.0" cy="565.0" r="11.1" fill="none" stroke="#C99A3E" stroke-opacity="0.108" stroke-width="2"/><path d="M239.0 565.0H336.0" stroke="#C99A3E" stroke-opacity="0.076" stroke-width="1.5"/><circle cx="475.0" cy="565.0" r="6.5" fill="none" stroke="#C9603D" stroke-opacity="0.212" stroke-width="2"/><circle cx="600.0" cy="565.0" r="6.3" fill="none" stroke="#C99A3E" stroke-opacity="0.175" stroke-width="2"/><circle cx="725.0" cy="565.0" r="3.2" fill="#C9603D" fill-opacity="0.105"/><circle cx="850.0" cy="565.0" r="3.2" fill="#C9603D" fill-opacity="0.095"/><circle cx="975.0" cy="565.0" r="3.2" fill="#C9603D" fill-opacity="0.061"/><path d="M989.0 565.0H1086.0" stroke="#C9603D" stroke-opacity="0.043" stroke-width="1.5"/>
  <rect x="40" y="40" width="1120" height="595" rx="10" fill="none" stroke="#C99A3E" stroke-opacity="0.18"/>
  <rect x="80" y="64" width="40" height="3" rx="1.5" fill="#C99A3E"/>
  <text x="80" y="100" font-family="'Fraunces', Georgia, serif" font-size="26" font-weight="500" fill="#C99A3E" fill-opacity="0.92">AFM Studio</text>
  <text x="1120" y="96" font-family="'JetBrains Mono', monospace" font-size="14" letter-spacing="2" fill="#E8E3D8" fill-opacity="0.35" text-anchor="end">CASE STUDY</text>
<g>
        <rect x="80" y="583" width="198" height="34" rx="6" fill="none" stroke="#C99A3E" stroke-opacity="0.35"/>
        <text x="179" y="606" font-family="'JetBrains Mono', monospace" font-size="16" fill="#C99A3E" fill-opacity="0.85" text-anchor="middle">Personal Project</text>
      </g><g>
        <rect x="290" y="583" width="99" height="34" rx="6" fill="none" stroke="#C99A3E" stroke-opacity="0.35"/>
        <text x="339.5" y="606" font-family="'JetBrains Mono', monospace" font-size="16" fill="#C99A3E" fill-opacity="0.85" text-anchor="middle">ML / AI</text>
      </g><g>
        <rect x="401" y="583" width="99" height="34" rx="6" fill="none" stroke="#C99A3E" stroke-opacity="0.35"/>
        <text x="450.5" y="606" font-family="'JetBrains Mono', monospace" font-size="16" fill="#C99A3E" fill-opacity="0.85" text-anchor="middle">Web App</text>
      </g>
</svg>
