<svg xmlns="http://www.w3.org/2000/svg" width="1200" height="675" viewBox="0 0 1200 675" role="img" aria-label="DoseRx cover">
  <rect width="1200" height="675" fill="#0D1B2A"/>
  <circle cx="100.0" cy="150.0" r="11.5" fill="none" stroke="#C99A3E" stroke-opacity="0.132" stroke-width="2"/><rect x="212.7" y="137.7" width="24.6" height="24.6" rx="2" fill="none" stroke="#C99A3E" stroke-opacity="0.138" stroke-width="2"/><rect x="338.1" y="138.1" width="23.8" height="23.8" rx="2" fill="none" stroke="#C99A3E" stroke-opacity="0.197" stroke-width="2"/><rect x="462.2" y="137.2" width="25.6" height="25.6" rx="2" fill="none" stroke="#C99A3E" stroke-opacity="0.072" stroke-width="2"/><circle cx="600.0" cy="150.0" r="5.1" fill="none" stroke="#C9603D" stroke-opacity="0.273" stroke-width="2"/><circle cx="725.0" cy="150.0" r="3.2" fill="#C9603D" fill-opacity="0.158"/><circle cx="850.0" cy="150.0" r="3.2" fill="#C9603D" fill-opacity="0.250"/><circle cx="975.0" cy="150.0" r="11.0" fill="none" stroke="#C99A3E" stroke-opacity="0.233" stroke-width="2"/><rect x="89.1" y="242.8" width="21.8" height="21.8" rx="2" fill="none" stroke="#C99A3E" stroke-opacity="0.072" stroke-width="2"/><circle cx="225.0" cy="253.8" r="8.0" fill="none" stroke="#C99A3E" stroke-opacity="0.224" stroke-width="2"/><circle cx="475.0" cy="253.8" r="10.8" fill="none" stroke="#C99A3E" stroke-opacity="0.180" stroke-width="2"/><circle cx="600.0" cy="253.8" r="5.4" fill="none" stroke="#C9603D" stroke-opacity="0.109" stroke-width="2"/><circle cx="725.0" cy="253.8" r="11.0" fill="none" stroke="#C9603D" stroke-opacity="0.130" stroke-width="2"/><path d="M842.3 253.8H857.7M850.0 246.0V261.5" stroke="#C9603D" stroke-opacity="0.116" stroke-width="2" stroke-linecap="round"/><path d="M967.7 253.8H982.3M975.0 246.4V261.1" stroke="#C9603D" stroke-opacity="0.061" stroke-width="2" stroke-linecap="round"/><path d="M989.0 253.8H1086.0" stroke="#C9603D" stroke-opacity="0.043" stroke-width="1.5"/><rect x="1091.3" y="245.1" width="17.4" height="17.4" rx="2" fill="none" stroke="#C99A3E" stroke-opacity="0.181" stroke-width="2"/><path d="M337.7 357.5H362.3M350.0 345.2V369.8" stroke="#C99A3E" stroke-opacity="0.279" stroke-width="2" stroke-linecap="round"/><path d="M465.5 357.5H484.5M475.0 348.0V367.0" stroke="#C9603D" stroke-opacity="0.082" stroke-width="2" stroke-linecap="round"/><circle cx="600.0" cy="357.5" r="3.2" fill="#C99A3E" fill-opacity="0.195"/><rect x="711.7" y="344.2" width="26.6" height="26.6" rx="2" fill="none" stroke="#C99A3E" stroke-opacity="0.226" stroke-width="2"/><circle cx="850.0" cy="357.5" r="11.9" fill="none" stroke="#C9603D" stroke-opacity="0.097" stroke-width="2"/><circle cx="975.0" cy="357.5" r="3.2" fill="#C99A3E" fill-opacity="0.257"/><path d="M1090.5 357.5H1109.5M1100.0 348.0V367.0" stroke="#C99A3E" stroke-opacity="0.182" stroke-width="2" stroke-linecap="round"/><rect x="91.0" y="452.3" width="18.0" height="18.0" rx="2" fill="none" stroke="#C9603D" stroke-opacity="0.232" stroke-width="2"/><circle cx="225.0" cy="461.3" r="3.2" fill="#C9603D" fill-opacity="0.067"/><circle cx="350.0" cy="461.3" r="8.2" fill="none" stroke="#C99A3E" stroke-opacity="0.259" stroke-width="2"/><rect x="461.8" y="448.1" width="26.4" height="26.4" rx="2" fill="none" stroke="#C99A3E" stroke-opacity="0.254" stroke-width="2"/><circle cx="600.0" cy="461.3" r="3.2" fill="#C9603D" fill-opacity="0.252"/><circle cx="725.0" cy="461.3" r="3.2" fill="#C9603D" fill-opacity="0.234"/><circle cx="850.0" cy="461.3" r="5.5" fill="none" stroke="#C99A3E" stroke-opacity="0.127" stroke-width="2"/><circle cx="975.0" cy="461.3" r="7.9" fill="none" stroke="#C9603D" stroke-opacity="0.097" stroke-width="2"/><path d="M1089.1 461.3H1110.9M1100.0 450.3V472.2" stroke="#C99A3E" stroke-opacity="0.161" stroke-width="2" stroke-linecap="round"/><circle cx="100.0" cy="565.0" r="9.9" fill="none" stroke="#C99A3E" stroke-opacity="0.154" stroke-width="2"/><circle cx="225.0" cy="565.0" r="9.5" fill="none" stroke="#C9603D" stroke-opacity="0.111" stroke-width="2"/><circle cx="350.0" cy="565.0" r="3.2" fill="#C99A3E" fill-opacity="0.213"/><path d="M364.0 565.0H461.0" stroke="#C99A3E" stroke-opacity="0.149" stroke-width="1.5"/><rect x="462.0" y="552.0" width="26.0" height="26.0" rx="2" fill="none" stroke="#C9603D" stroke-opacity="0.080" stroke-width="2"/><circle cx="600.0" cy="565.0" r="6.5" fill="none" stroke="#C99A3E" stroke-opacity="0.112" stroke-width="2"/><circle cx="725.0" cy="565.0" r="6.2" fill="none" stroke="#C99A3E" stroke-opacity="0.211" stroke-width="2"/><circle cx="850.0" cy="565.0" r="11.4" fill="none" stroke="#C9603D" stroke-opacity="0.168" stroke-width="2"/><circle cx="1100.0" cy="565.0" r="3.2" fill="#C99A3E" fill-opacity="0.126"/>
  <rect x="40" y="40" width="1120" height="595" rx="10" fill="none" stroke="#C99A3E" stroke-opacity="0.18"/>
  <rect x="80" y="64" width="40" height="3" rx="1.5" fill="#C9603D"/>
  <text x="80" y="100" font-family="'Fraunces', Georgia, serif" font-size="26" font-weight="500" fill="#C99A3E" fill-opacity="0.92">AFM Studio</text>
  <text x="1120" y="96" font-family="'JetBrains Mono', monospace" font-size="14" letter-spacing="2" fill="#E8E3D8" fill-opacity="0.35" text-anchor="end">CASE STUDY</text>
<g>
        <rect x="80" y="583" width="198" height="34" rx="6" fill="none" stroke="#C9603D" stroke-opacity="0.35"/>
        <text x="179" y="606" font-family="'JetBrains Mono', monospace" font-size="16" fill="#C9603D" fill-opacity="0.85" text-anchor="middle">Personal Project</text>
      </g><g>
        <rect x="290" y="583" width="132" height="34" rx="6" fill="none" stroke="#C9603D" stroke-opacity="0.35"/>
        <text x="356" y="606" font-family="'JetBrains Mono', monospace" font-size="16" fill="#C9603D" fill-opacity="0.85" text-anchor="middle">Healthcare</text>
      </g><g>
        <rect x="434" y="583" width="99" height="34" rx="6" fill="none" stroke="#C9603D" stroke-opacity="0.35"/>
        <text x="483.5" y="606" font-family="'JetBrains Mono', monospace" font-size="16" fill="#C9603D" fill-opacity="0.85" text-anchor="middle">Web App</text>
      </g>
</svg>
