<svg xmlns="http://www.w3.org/2000/svg" width="1200" height="675" viewBox="0 0 1200 675" role="img" aria-label="Lantara v2 cover">
  <rect width="1200" height="675" fill="#0D1B2A"/>
  <circle cx="100.0" cy="150.0" r="3.2" fill="#C9603D" fill-opacity="0.061"/><path d="M114.0 150.0H211.0" stroke="#C9603D" stroke-opacity="0.043" stroke-width="1.5"/><rect x="213.3" y="138.3" width="23.4" height="23.4" rx="2" fill="none" stroke="#C99A3E" stroke-opacity="0.125" stroke-width="2"/><circle cx="350.0" cy="150.0" r="3.2" fill="#C99A3E" fill-opacity="0.231"/><path d="M364.0 150.0H461.0" stroke="#C99A3E" stroke-opacity="0.162" stroke-width="1.5"/><circle cx="475.0" cy="150.0" r="10.4" fill="none" stroke="#C99A3E" stroke-opacity="0.176" stroke-width="2"/><circle cx="600.0" cy="150.0" r="11.3" fill="none" stroke="#C9603D" stroke-opacity="0.258" stroke-width="2"/><path d="M717.5 150.0H732.5M725.0 142.5V157.5" stroke="#C99A3E" stroke-opacity="0.070" stroke-width="2" stroke-linecap="round"/><rect x="839.6" y="139.6" width="20.8" height="20.8" rx="2" fill="none" stroke="#C9603D" stroke-opacity="0.145" stroke-width="2"/><circle cx="100.0" cy="253.8" r="3.2" fill="#C9603D" fill-opacity="0.183"/><path d="M114.0 253.8H211.0" stroke="#C9603D" stroke-opacity="0.128" stroke-width="1.5"/><path d="M214.7 253.8H235.3M225.0 243.4V264.1" stroke="#C9603D" stroke-opacity="0.158" stroke-width="2" stroke-linecap="round"/><path d="M239.0 253.8H336.0" stroke="#C9603D" stroke-opacity="0.111" stroke-width="1.5"/><circle cx="350.0" cy="253.8" r="3.2" fill="#C9603D" fill-opacity="0.177"/><path d="M462.2 253.8H487.8M475.0 241.0V266.5" stroke="#C9603D" stroke-opacity="0.218" stroke-width="2" stroke-linecap="round"/><path d="M489.0 253.8H586.0" stroke="#C9603D" stroke-opacity="0.153" stroke-width="1.5"/><circle cx="600.0" cy="253.8" r="11.8" fill="none" stroke="#C9603D" stroke-opacity="0.273" stroke-width="2"/><circle cx="725.0" cy="253.8" r="3.2" fill="#C9603D" fill-opacity="0.172"/><rect x="839.6" y="243.3" width="20.8" height="20.8" rx="2" fill="none" stroke="#C99A3E" stroke-opacity="0.274" stroke-width="2"/><path d="M962.9 253.8H987.1M975.0 241.7V265.8" stroke="#C9603D" stroke-opacity="0.131" stroke-width="2" stroke-linecap="round"/><circle cx="1100.0" cy="253.8" r="6.9" fill="none" stroke="#C9603D" stroke-opacity="0.186" stroke-width="2"/><path d="M92.1 357.5H107.9M100.0 349.6V365.4" stroke="#C9603D" stroke-opacity="0.110" stroke-width="2" stroke-linecap="round"/><circle cx="225.0" cy="357.5" r="3.2" fill="#C9603D" fill-opacity="0.107"/><path d="M467.3 357.5H482.7M475.0 349.8V365.2" stroke="#C9603D" stroke-opacity="0.178" stroke-width="2" stroke-linecap="round"/><path d="M592.8 357.5H607.2M600.0 350.3V364.7" stroke="#C9603D" stroke-opacity="0.138" stroke-width="2" stroke-linecap="round"/><path d="M841.8 357.5H858.2M850.0 349.3V365.7" stroke="#C99A3E" stroke-opacity="0.120" stroke-width="2" stroke-linecap="round"/><path d="M965.3 357.5H984.7M975.0 347.8V367.2" stroke="#C9603D" stroke-opacity="0.095" stroke-width="2" stroke-linecap="round"/><circle cx="100.0" cy="461.3" r="3.2" fill="#C99A3E" fill-opacity="0.212"/><rect x="213.0" y="449.3" width="24.0" height="24.0" rx="2" fill="none" stroke="#C99A3E" stroke-opacity="0.174" stroke-width="2"/><path d="M341.0 461.3H359.0M350.0 452.3V470.2" stroke="#C99A3E" stroke-opacity="0.063" stroke-width="2" stroke-linecap="round"/><path d="M364.0 461.3H461.0" stroke="#C99A3E" stroke-opacity="0.044" stroke-width="1.5"/><circle cx="475.0" cy="461.3" r="3.2" fill="#C9603D" fill-opacity="0.129"/><path d="M591.9 461.3H608.1M600.0 453.2V469.3" stroke="#C99A3E" stroke-opacity="0.126" stroke-width="2" stroke-linecap="round"/><circle cx="725.0" cy="461.3" r="9.5" fill="none" stroke="#C9603D" stroke-opacity="0.200" stroke-width="2"/><path d="M739.0 461.3H836.0" stroke="#C9603D" stroke-opacity="0.140" stroke-width="1.5"/><rect x="837.6" y="448.9" width="24.8" height="24.8" rx="2" fill="none" stroke="#C99A3E" stroke-opacity="0.062" stroke-width="2"/><rect x="965.8" y="452.1" width="18.4" height="18.4" rx="2" fill="none" stroke="#C99A3E" stroke-opacity="0.198" stroke-width="2"/><path d="M989.0 461.3H1086.0" stroke="#C99A3E" stroke-opacity="0.139" stroke-width="1.5"/><circle cx="1100.0" cy="461.3" r="8.7" fill="none" stroke="#C9603D" stroke-opacity="0.183" stroke-width="2"/><rect x="87.3" y="552.3" width="25.4" height="25.4" rx="2" fill="none" stroke="#C9603D" stroke-opacity="0.272" stroke-width="2"/><circle cx="225.0" cy="565.0" r="3.2" fill="#C9603D" fill-opacity="0.249"/><circle cx="350.0" cy="565.0" r="6.9" fill="none" stroke="#C99A3E" stroke-opacity="0.177" stroke-width="2"/><circle cx="475.0" cy="565.0" r="5.5" fill="none" stroke="#C9603D" stroke-opacity="0.263" stroke-width="2"/><path d="M489.0 565.0H586.0" stroke="#C9603D" stroke-opacity="0.184" stroke-width="1.5"/><path d="M614.0 565.0H711.0" stroke="#C99A3E" stroke-opacity="0.069" stroke-width="1.5"/><path d="M716.1 565.0H733.9M725.0 556.1V573.9" stroke="#C99A3E" stroke-opacity="0.209" stroke-width="2" stroke-linecap="round"/><path d="M739.0 565.0H836.0" stroke="#C99A3E" stroke-opacity="0.146" stroke-width="1.5"/><circle cx="850.0" cy="565.0" r="7.5" fill="none" stroke="#C9603D" stroke-opacity="0.256" stroke-width="2"/><rect x="966.2" y="556.2" width="17.6" height="17.6" rx="2" fill="none" stroke="#C99A3E" stroke-opacity="0.135" stroke-width="2"/><circle cx="1100.0" cy="565.0" r="3.2" fill="#C99A3E" fill-opacity="0.257"/>
  <rect x="40" y="40" width="1120" height="595" rx="10" fill="none" stroke="#C99A3E" stroke-opacity="0.18"/>
  <rect x="80" y="64" width="40" height="3" rx="1.5" fill="#C99A3E"/>
  <text x="80" y="100" font-family="'Fraunces', Georgia, serif" font-size="26" font-weight="500" fill="#C99A3E" fill-opacity="0.92">AFM Studio</text>
  <text x="1120" y="96" font-family="'JetBrains Mono', monospace" font-size="14" letter-spacing="2" fill="#E8E3D8" fill-opacity="0.35" text-anchor="end">CONFIDENTIAL</text>
<g>
        <rect x="80" y="583" width="132" height="34" rx="6" fill="none" stroke="#C99A3E" stroke-opacity="0.35"/>
        <text x="146" y="606" font-family="'JetBrains Mono', monospace" font-size="16" fill="#C99A3E" fill-opacity="0.85" text-anchor="middle">Government</text>
      </g><g>
        <rect x="224" y="583" width="110" height="34" rx="6" fill="none" stroke="#C99A3E" stroke-opacity="0.35"/>
        <text x="279" y="606" font-family="'JetBrains Mono', monospace" font-size="16" fill="#C99A3E" fill-opacity="0.85" text-anchor="middle">Platform</text>
      </g><g>
        <rect x="346" y="583" width="99" height="34" rx="6" fill="none" stroke="#C99A3E" stroke-opacity="0.35"/>
        <text x="395.5" y="606" font-family="'JetBrains Mono', monospace" font-size="16" fill="#C99A3E" fill-opacity="0.85" text-anchor="middle">Web App</text>
      </g>
</svg>
