<svg xmlns="http://www.w3.org/2000/svg" width="1200" height="675" viewBox="0 0 1200 675" role="img" aria-label="Scimotion cover">
  <rect width="1200" height="675" fill="#0D1B2A"/>
  <circle cx="100.0" cy="150.0" r="3.2" fill="#C99A3E" fill-opacity="0.061"/><path d="M114.0 150.0H211.0" stroke="#C99A3E" stroke-opacity="0.043" stroke-width="1.5"/><rect x="216.8" y="141.8" width="16.4" height="16.4" rx="2" fill="none" stroke="#C99A3E" stroke-opacity="0.230" stroke-width="2"/><circle cx="350.0" cy="150.0" r="11.1" fill="none" stroke="#C99A3E" stroke-opacity="0.200" stroke-width="2"/><path d="M364.0 150.0H461.0" stroke="#C99A3E" stroke-opacity="0.140" stroke-width="1.5"/><path d="M462.0 150.0H488.0M475.0 137.0V163.0" stroke="#C9603D" stroke-opacity="0.140" stroke-width="2" stroke-linecap="round"/><path d="M489.0 150.0H586.0" stroke="#C9603D" stroke-opacity="0.098" stroke-width="1.5"/><path d="M591.9 150.0H608.1M600.0 141.9V158.1" stroke="#C9603D" stroke-opacity="0.071" stroke-width="2" stroke-linecap="round"/><rect x="711.0" y="136.0" width="28.0" height="28.0" rx="2" fill="none" stroke="#C9603D" stroke-opacity="0.222" stroke-width="2"/><path d="M739.0 150.0H836.0" stroke="#C9603D" stroke-opacity="0.155" stroke-width="1.5"/><circle cx="850.0" cy="150.0" r="3.2" fill="#C9603D" fill-opacity="0.196"/><path d="M864.0 150.0H961.0" stroke="#C9603D" stroke-opacity="0.137" stroke-width="1.5"/><path d="M964.4 150.0H985.6M975.0 139.4V160.6" stroke="#C99A3E" stroke-opacity="0.143" stroke-width="2" stroke-linecap="round"/><circle cx="1100.0" cy="150.0" r="3.2" fill="#C9603D" fill-opacity="0.198"/><circle cx="100.0" cy="253.8" r="10.3" fill="none" stroke="#C9603D" stroke-opacity="0.094" stroke-width="2"/><circle cx="225.0" cy="253.8" r="3.2" fill="#C99A3E" fill-opacity="0.187"/><path d="M339.1 253.8H360.9M350.0 242.9V264.6" stroke="#C9603D" stroke-opacity="0.094" stroke-width="2" stroke-linecap="round"/><path d="M590.0 253.8H610.0M600.0 243.7V263.8" stroke="#C99A3E" stroke-opacity="0.239" stroke-width="2" stroke-linecap="round"/><rect x="715.3" y="244.1" width="19.4" height="19.4" rx="2" fill="none" stroke="#C9603D" stroke-opacity="0.177" stroke-width="2"/><path d="M838.3 253.8H861.7M850.0 242.0V265.5" stroke="#C9603D" stroke-opacity="0.134" stroke-width="2" stroke-linecap="round"/><path d="M965.0 253.8H985.0M975.0 243.8V263.7" stroke="#C9603D" stroke-opacity="0.174" stroke-width="2" stroke-linecap="round"/><path d="M1092.5 253.8H1107.5M1100.0 246.2V261.3" stroke="#C99A3E" stroke-opacity="0.174" stroke-width="2" stroke-linecap="round"/><path d="M91.4 357.5H108.6M100.0 348.9V366.1" stroke="#C99A3E" stroke-opacity="0.248" stroke-width="2" stroke-linecap="round"/><circle cx="225.0" cy="357.5" r="11.8" fill="none" stroke="#C99A3E" stroke-opacity="0.202" stroke-width="2"/><circle cx="350.0" cy="357.5" r="7.0" fill="none" stroke="#C9603D" stroke-opacity="0.204" stroke-width="2"/><circle cx="475.0" cy="357.5" r="5.6" fill="none" stroke="#C9603D" stroke-opacity="0.203" stroke-width="2"/><circle cx="600.0" cy="357.5" r="7.7" fill="none" stroke="#C99A3E" stroke-opacity="0.160" stroke-width="2"/><path d="M712.8 357.5H737.2M725.0 345.3V369.7" stroke="#C99A3E" stroke-opacity="0.104" stroke-width="2" stroke-linecap="round"/><circle cx="850.0" cy="357.5" r="3.2" fill="#C99A3E" fill-opacity="0.176"/><path d="M864.0 357.5H961.0" stroke="#C99A3E" stroke-opacity="0.123" stroke-width="1.5"/><path d="M967.5 357.5H982.5M975.0 350.0V365.0" stroke="#C9603D" stroke-opacity="0.083" stroke-width="2" stroke-linecap="round"/><rect x="1090.5" y="348.0" width="19.0" height="19.0" rx="2" fill="none" stroke="#C9603D" stroke-opacity="0.091" stroke-width="2"/><circle cx="100.0" cy="461.3" r="3.2" fill="#C9603D" fill-opacity="0.089"/><circle cx="225.0" cy="461.3" r="8.9" fill="none" stroke="#C9603D" stroke-opacity="0.179" stroke-width="2"/><circle cx="475.0" cy="461.3" r="6.8" fill="none" stroke="#C9603D" stroke-opacity="0.091" stroke-width="2"/><circle cx="600.0" cy="461.3" r="3.2" fill="#C99A3E" fill-opacity="0.201"/><path d="M712.5 461.3H737.5M725.0 448.8V473.7" stroke="#C99A3E" stroke-opacity="0.245" stroke-width="2" stroke-linecap="round"/><circle cx="850.0" cy="461.3" r="3.2" fill="#C9603D" fill-opacity="0.095"/><circle cx="975.0" cy="461.3" r="10.6" fill="none" stroke="#C99A3E" stroke-opacity="0.082" stroke-width="2"/><path d="M989.0 461.3H1086.0" stroke="#C99A3E" stroke-opacity="0.057" stroke-width="1.5"/><circle cx="1100.0" cy="461.3" r="3.2" fill="#C9603D" fill-opacity="0.155"/><circle cx="100.0" cy="565.0" r="3.2" fill="#C99A3E" fill-opacity="0.136"/><circle cx="225.0" cy="565.0" r="3.2" fill="#C99A3E" fill-opacity="0.194"/><path d="M239.0 565.0H336.0" stroke="#C99A3E" stroke-opacity="0.136" stroke-width="1.5"/><circle cx="350.0" cy="565.0" r="3.2" fill="#C9603D" fill-opacity="0.212"/><circle cx="475.0" cy="565.0" r="7.2" fill="none" stroke="#C99A3E" stroke-opacity="0.198" stroke-width="2"/><circle cx="600.0" cy="565.0" r="3.2" fill="#C9603D" fill-opacity="0.209"/><path d="M739.0 565.0H836.0" stroke="#C9603D" stroke-opacity="0.128" stroke-width="1.5"/><circle cx="850.0" cy="565.0" r="5.0" fill="none" stroke="#C9603D" stroke-opacity="0.270" stroke-width="2"/><path d="M962.9 565.0H987.1M975.0 552.9V577.1" stroke="#C9603D" stroke-opacity="0.073" stroke-width="2" stroke-linecap="round"/><rect x="1087.7" y="552.7" width="24.6" height="24.6" rx="2" fill="none" stroke="#C9603D" stroke-opacity="0.147" stroke-width="2"/>
  <rect x="40" y="40" width="1120" height="595" rx="10" fill="none" stroke="#C99A3E" stroke-opacity="0.18"/>
  <rect x="80" y="64" width="40" height="3" rx="1.5" fill="#C9603D"/>
  <text x="80" y="100" font-family="'Fraunces', Georgia, serif" font-size="26" font-weight="500" fill="#C99A3E" fill-opacity="0.92">AFM Studio</text>
  <text x="1120" y="96" font-family="'JetBrains Mono', monospace" font-size="14" letter-spacing="2" fill="#E8E3D8" fill-opacity="0.35" text-anchor="end">CASE STUDY</text>
<g>
        <rect x="80" y="583" width="198" height="34" rx="6" fill="none" stroke="#C9603D" stroke-opacity="0.35"/>
        <text x="179" y="606" font-family="'JetBrains Mono', monospace" font-size="16" fill="#C9603D" fill-opacity="0.85" text-anchor="middle">Personal Project</text>
      </g><g>
        <rect x="290" y="583" width="99" height="34" rx="6" fill="none" stroke="#C9603D" stroke-opacity="0.35"/>
        <text x="339.5" y="606" font-family="'JetBrains Mono', monospace" font-size="16" fill="#C9603D" fill-opacity="0.85" text-anchor="middle">Content</text>
      </g><g>
        <rect x="401" y="583" width="99" height="34" rx="6" fill="none" stroke="#C9603D" stroke-opacity="0.35"/>
        <text x="450.5" y="606" font-family="'JetBrains Mono', monospace" font-size="16" fill="#C9603D" fill-opacity="0.85" text-anchor="middle">Web App</text>
      </g>
</svg>
