<svg xmlns="http://www.w3.org/2000/svg" width="1200" height="675" viewBox="0 0 1200 675" role="img" aria-label="Dashboard SAKTI cover">
  <rect width="1200" height="675" fill="#0D1B2A"/>
  <circle cx="225.0" cy="150.0" r="3.2" fill="#C9603D" fill-opacity="0.160"/><rect x="341.2" y="141.2" width="17.6" height="17.6" rx="2" fill="none" stroke="#C9603D" stroke-opacity="0.213" stroke-width="2"/><circle cx="475.0" cy="150.0" r="3.2" fill="#C99A3E" fill-opacity="0.145"/><circle cx="600.0" cy="150.0" r="3.2" fill="#C9603D" fill-opacity="0.103"/><circle cx="725.0" cy="150.0" r="3.2" fill="#C9603D" fill-opacity="0.126"/><circle cx="850.0" cy="150.0" r="3.2" fill="#C99A3E" fill-opacity="0.159"/><rect x="966.8" y="141.8" width="16.4" height="16.4" rx="2" fill="none" stroke="#C99A3E" stroke-opacity="0.190" stroke-width="2"/><circle cx="1100.0" cy="150.0" r="6.6" fill="none" stroke="#C9603D" stroke-opacity="0.134" stroke-width="2"/><circle cx="100.0" cy="253.8" r="3.2" fill="#C99A3E" fill-opacity="0.242"/><path d="M212.9 253.8H237.1M225.0 241.7V265.8" stroke="#C99A3E" stroke-opacity="0.109" stroke-width="2" stroke-linecap="round"/><path d="M342.8 253.8H357.2M350.0 246.6V260.9" stroke="#C9603D" stroke-opacity="0.168" stroke-width="2" stroke-linecap="round"/><path d="M364.0 253.8H461.0" stroke="#C9603D" stroke-opacity="0.118" stroke-width="1.5"/><circle cx="475.0" cy="253.8" r="8.8" fill="none" stroke="#C9603D" stroke-opacity="0.113" stroke-width="2"/><circle cx="600.0" cy="253.8" r="8.4" fill="none" stroke="#C99A3E" stroke-opacity="0.200" stroke-width="2"/><path d="M716.5 253.8H733.5M725.0 245.3V262.2" stroke="#C9603D" stroke-opacity="0.177" stroke-width="2" stroke-linecap="round"/><circle cx="850.0" cy="253.8" r="11.4" fill="none" stroke="#C99A3E" stroke-opacity="0.090" stroke-width="2"/><circle cx="975.0" cy="253.8" r="3.2" fill="#C99A3E" fill-opacity="0.175"/><path d="M989.0 253.8H1086.0" stroke="#C99A3E" stroke-opacity="0.122" stroke-width="1.5"/><circle cx="1100.0" cy="253.8" r="11.2" fill="none" stroke="#C9603D" stroke-opacity="0.155" stroke-width="2"/><circle cx="100.0" cy="357.5" r="5.1" fill="none" stroke="#C99A3E" stroke-opacity="0.201" stroke-width="2"/><circle cx="225.0" cy="357.5" r="3.2" fill="#C9603D" fill-opacity="0.119"/><path d="M239.0 357.5H336.0" stroke="#C9603D" stroke-opacity="0.083" stroke-width="1.5"/><path d="M337.8 357.5H362.2M350.0 345.3V369.7" stroke="#C9603D" stroke-opacity="0.122" stroke-width="2" stroke-linecap="round"/><circle cx="475.0" cy="357.5" r="8.1" fill="none" stroke="#C9603D" stroke-opacity="0.114" stroke-width="2"/><path d="M489.0 357.5H586.0" stroke="#C9603D" stroke-opacity="0.080" stroke-width="1.5"/><rect x="587.0" y="344.5" width="26.0" height="26.0" rx="2" fill="none" stroke="#C99A3E" stroke-opacity="0.162" stroke-width="2"/><path d="M712.9 357.5H737.1M725.0 345.4V369.6" stroke="#C9603D" stroke-opacity="0.201" stroke-width="2" stroke-linecap="round"/><circle cx="850.0" cy="357.5" r="11.5" fill="none" stroke="#C9603D" stroke-opacity="0.127" stroke-width="2"/><path d="M864.0 357.5H961.0" stroke="#C9603D" stroke-opacity="0.089" stroke-width="1.5"/><circle cx="975.0" cy="357.5" r="3.2" fill="#C99A3E" fill-opacity="0.228"/><path d="M989.0 357.5H1086.0" stroke="#C99A3E" stroke-opacity="0.160" stroke-width="1.5"/><circle cx="1100.0" cy="357.5" r="11.6" fill="none" stroke="#C9603D" stroke-opacity="0.089" stroke-width="2"/><circle cx="100.0" cy="461.3" r="3.2" fill="#C9603D" fill-opacity="0.060"/><path d="M114.0 461.3H211.0" stroke="#C9603D" stroke-opacity="0.042" stroke-width="1.5"/><circle cx="225.0" cy="461.3" r="3.2" fill="#C9603D" fill-opacity="0.174"/><circle cx="350.0" cy="461.3" r="6.9" fill="none" stroke="#C99A3E" stroke-opacity="0.084" stroke-width="2"/><path d="M364.0 461.3H461.0" stroke="#C99A3E" stroke-opacity="0.059" stroke-width="1.5"/><circle cx="475.0" cy="461.3" r="8.3" fill="none" stroke="#C99A3E" stroke-opacity="0.155" stroke-width="2"/><rect x="715.5" y="451.8" width="19.0" height="19.0" rx="2" fill="none" stroke="#C9603D" stroke-opacity="0.182" stroke-width="2"/><circle cx="850.0" cy="461.3" r="3.2" fill="#C99A3E" fill-opacity="0.160"/><circle cx="975.0" cy="461.3" r="3.2" fill="#C9603D" fill-opacity="0.087"/><circle cx="1100.0" cy="461.3" r="3.2" fill="#C99A3E" fill-opacity="0.266"/><path d="M91.9 565.0H108.1M100.0 556.9V573.1" stroke="#C9603D" stroke-opacity="0.162" stroke-width="2" stroke-linecap="round"/><path d="M114.0 565.0H211.0" stroke="#C9603D" stroke-opacity="0.113" stroke-width="1.5"/><circle cx="225.0" cy="565.0" r="11.6" fill="none" stroke="#C9603D" stroke-opacity="0.129" stroke-width="2"/><circle cx="350.0" cy="565.0" r="3.2" fill="#C9603D" fill-opacity="0.161"/><circle cx="475.0" cy="565.0" r="3.2" fill="#C9603D" fill-opacity="0.136"/><path d="M489.0 565.0H586.0" stroke="#C9603D" stroke-opacity="0.095" stroke-width="1.5"/><circle cx="600.0" cy="565.0" r="3.2" fill="#C9603D" fill-opacity="0.270"/><circle cx="725.0" cy="565.0" r="10.2" fill="none" stroke="#C9603D" stroke-opacity="0.129" stroke-width="2"/><circle cx="850.0" cy="565.0" r="9.9" fill="none" stroke="#C9603D" stroke-opacity="0.213" stroke-width="2"/><circle cx="975.0" cy="565.0" r="10.6" fill="none" stroke="#C9603D" stroke-opacity="0.158" stroke-width="2"/><circle cx="1100.0" cy="565.0" r="3.2" fill="#C9603D" fill-opacity="0.139"/>
  <rect x="40" y="40" width="1120" height="595" rx="10" fill="none" stroke="#C99A3E" stroke-opacity="0.18"/>
  <rect x="80" y="64" width="40" height="3" rx="1.5" fill="#C99A3E"/>
  <text x="80" y="100" font-family="'Fraunces', Georgia, serif" font-size="26" font-weight="500" fill="#C99A3E" fill-opacity="0.92">AFM Studio</text>
  <text x="1120" y="96" font-family="'JetBrains Mono', monospace" font-size="14" letter-spacing="2" fill="#E8E3D8" fill-opacity="0.35" text-anchor="end">CONFIDENTIAL</text>
<g>
        <rect x="80" y="583" width="132" height="34" rx="6" fill="none" stroke="#C99A3E" stroke-opacity="0.35"/>
        <text x="146" y="606" font-family="'JetBrains Mono', monospace" font-size="16" fill="#C99A3E" fill-opacity="0.85" text-anchor="middle">Government</text>
      </g><g>
        <rect x="224" y="583" width="165" height="34" rx="6" fill="none" stroke="#C99A3E" stroke-opacity="0.35"/>
        <text x="306.5" y="606" font-family="'JetBrains Mono', monospace" font-size="16" fill="#C99A3E" fill-opacity="0.85" text-anchor="middle">Data Platform</text>
      </g><g>
        <rect x="401" y="583" width="165" height="34" rx="6" fill="none" stroke="#C99A3E" stroke-opacity="0.35"/>
        <text x="483.5" y="606" font-family="'JetBrains Mono', monospace" font-size="16" fill="#C99A3E" fill-opacity="0.85" text-anchor="middle">Internal Tool</text>
      </g>
</svg>
